<svg width="29.500000" height="29.500000" viewBox="0 0 29.5 29.5" fill="none" xmlns="http://www.w3.org/2000/svg" xmlns:xlink="http://www.w3.org/1999/xlink">
	<desc>
			Created with Pixso.
	</desc>
	<defs/>
	<path id="Icon" d="M25.75 14.75L25.75 28.5L3.75 28.5L3.75 14.75M28.5 7.87L28.5 14.75L1 14.75L1 7.87L28.5 7.87ZM14.75 28.5L14.75 7.87M14.75 7.87C14.75 7.87 16.12 1 20.93 1C21.84 1 22.72 1.36 23.36 2C24.01 2.65 24.37 3.52 24.37 4.43C24.37 5.34 24.01 6.22 23.36 6.86C22.72 7.51 21.84 7.87 20.93 7.87L14.75 7.87L8.56 7.87C7.65 7.87 6.77 7.51 6.13 6.86C5.48 6.22 5.12 5.34 5.12 4.43C5.12 3.52 5.48 2.65 6.13 2C6.77 1.36 7.65 1 8.56 1C13.37 1 14.75 7.87 14.75 7.87" stroke="#FFFFFF" stroke-opacity="1.000000" stroke-width="2.000000" stroke-linejoin="round" stroke-linecap="round"/>
</svg>
