<svg width="26.666748" height="26.668457" viewBox="0 0 26.6667 26.6685" fill="none" xmlns="http://www.w3.org/2000/svg" xmlns:xlink="http://www.w3.org/1999/xlink">
	<desc>
			Created with Pixso.
	</desc>
	<defs/>
	<path id="Vector" d="M26.66 6.98C26.66 6.81 26.63 6.63 26.56 6.47C26.5 6.31 26.4 6.16 26.28 6.04L20.62 0.38C20.5 0.26 20.35 0.16 20.19 0.09C20.02 0.03 19.85 -0.01 19.67 0C19.5 -0.01 19.33 0.03 19.16 0.09C19 0.16 18.85 0.26 18.73 0.38L14.96 4.16L0.38 18.73C0.26 18.85 0.16 19 0.09 19.16C0.03 19.33 -0.01 19.5 0 19.68L0 25.33C0 25.68 0.14 26.02 0.39 26.27C0.64 26.52 0.97 26.66 1.33 26.66L6.98 26.66C7.17 26.67 7.35 26.64 7.53 26.58C7.7 26.51 7.86 26.41 8 26.27L22.49 11.7L26.28 8C26.4 7.87 26.5 7.72 26.57 7.56C26.58 7.45 26.58 7.34 26.57 7.24C26.57 7.17 26.57 7.11 26.57 7.05L26.66 6.98ZM6.43 24L2.66 24L2.66 20.22L15.9 6.98L19.67 10.76L6.43 24ZM21.56 8.87L17.78 5.1L19.67 3.22L23.43 6.98L21.56 8.87Z" fill="#FFFFFF" fill-opacity="1.000000" fill-rule="nonzero"/>
</svg>
