<svg width="20.747070" height="21.659695" viewBox="0 0 20.7471 21.6597" fill="none" xmlns="http://www.w3.org/2000/svg" xmlns:xlink="http://www.w3.org/1999/xlink">
	<desc>
			Created with Pixso.
	</desc>
	<defs/>
	<path id="Icon" d="M16.28 0.8L19.94 4.63L16.28 8.46M12.61 4.63L19.94 4.63M19.03 18.93C19.03 19.2 18.97 19.46 18.87 19.71C18.77 19.95 18.62 20.17 18.43 20.35C18.24 20.53 18.02 20.67 17.78 20.75C17.54 20.84 17.28 20.87 17.03 20.85C14.21 20.53 11.5 19.52 9.12 17.9C6.9 16.43 5.02 14.47 3.62 12.15C2.07 9.65 1.1 6.81 0.8 3.85C0.78 3.58 0.81 3.31 0.89 3.06C0.97 2.81 1.1 2.58 1.27 2.38C1.45 2.18 1.65 2.03 1.89 1.92C2.12 1.81 2.37 1.76 2.63 1.76L5.38 1.76C5.82 1.75 6.25 1.92 6.59 2.22C6.93 2.52 7.15 2.94 7.21 3.4C7.33 4.33 7.54 5.23 7.85 6.1C7.97 6.44 8 6.81 7.93 7.17C7.85 7.53 7.69 7.86 7.44 8.12L6.27 9.34C7.58 11.74 9.48 13.72 11.77 15.09L12.94 13.87C13.19 13.61 13.5 13.43 13.85 13.36C14.19 13.28 14.54 13.31 14.87 13.44C15.7 13.76 16.57 13.99 17.45 14.11C17.89 14.18 18.3 14.41 18.59 14.77C18.88 15.13 19.04 15.58 19.03 16.05L19.03 18.93Z" stroke="#FFFFFF" stroke-opacity="1.000000" stroke-width="1.600000" stroke-linejoin="round" stroke-linecap="round"/>
</svg>
